<svg width="52" height="52" viewBox="0 0 52 52" fill="none" xmlns="http://www.w3.org/2000/svg">
<circle cx="26" cy="26" r="26" fill="url(#paint0_linear)"/>
<g clip-path="url(#clip0)">
<path d="M28.0423 21.1571C28.071 21.1247 28.2054 21.019 28.7331 21.019L30.4631 21.0183C31.0259 21.0183 31.4836 20.5614 31.4836 19.9997V16.9818C31.4836 16.4211 31.0266 15.9641 30.4647 15.9632L27.8949 15.959C26.3089 15.959 24.9606 16.4811 23.9958 17.4692C23.0354 18.4528 22.5276 19.8258 22.5276 21.4397V23.0674H20.5617C19.9989 23.0674 19.5411 23.5243 19.5411 24.086V27.3362C19.5411 27.8979 19.9989 28.3549 20.5617 28.3549H22.5276V35.9404C22.5276 36.5021 22.9854 36.959 23.5482 36.959H26.9178C27.4806 36.959 27.9384 36.5021 27.9384 35.9404V28.355H30.3414C30.9043 28.355 31.3619 27.8979 31.3619 27.3365L31.3632 24.0862C31.3632 23.7172 31.1621 23.3758 30.8381 23.1952C30.688 23.1116 30.5134 23.0674 30.3332 23.0674H27.9384V21.7815C27.9384 21.3623 27.995 21.2106 28.0423 21.1571Z" fill="white"/>
</g>
<defs>
<linearGradient id="paint0_linear" x1="-37.5004" y1="83.6701" x2="67.8097" y2="21.5464" gradientUnits="userSpaceOnUse">
<stop stop-color="#1D737E"/>
<stop offset="1" stop-color="#4FB9C7"/>
</linearGradient>
<clipPath id="clip0">
<rect width="21" height="21" fill="white" transform="translate(15 16)"/>
</clipPath>
</defs>
</svg>
