<svg width="52" height="52" viewBox="0 0 52 52" fill="none" xmlns="http://www.w3.org/2000/svg">
<circle cx="26" cy="26" r="26" fill="url(#paint0_linear)"/>
<path d="M29.3982 18H21.6017C19.0643 18 17 20.0643 17 22.6017V30.3984C17 32.9357 19.0643 35 21.6017 35H29.3984C31.9357 35 34 32.9357 34 30.3984V22.6017C34 20.0643 31.9357 18 29.3982 18V18ZM25.5 31.1483C22.9369 31.1483 20.8517 29.0631 20.8517 26.5C20.8517 23.9369 22.9369 21.8517 25.5 21.8517C28.0631 21.8517 30.1483 23.9369 30.1483 26.5C30.1483 29.0631 28.0631 31.1483 25.5 31.1483ZM30.2594 22.9479C29.502 22.9479 28.8859 22.3318 28.8859 21.5744C28.8859 20.8169 29.502 20.2007 30.2594 20.2007C31.0169 20.2007 31.6331 20.8169 31.6331 21.5744C31.6331 22.3318 31.0169 22.9479 30.2594 22.9479Z" fill="white"/>
<path d="M25.5 22.8481C23.4865 22.8481 21.8483 24.4862 21.8483 26.4998C21.8483 28.5133 23.4865 30.1515 25.5 30.1515C27.5135 30.1515 29.1516 28.5133 29.1516 26.4998C29.1516 24.4862 27.5135 22.8481 25.5 22.8481Z" fill="white"/>
<path d="M30.2595 21.1973C30.0517 21.1973 29.8826 21.3664 29.8826 21.5742C29.8826 21.782 30.0517 21.9511 30.2595 21.9511C30.4674 21.9511 30.6365 21.7821 30.6365 21.5742C30.6365 21.3663 30.4674 21.1973 30.2595 21.1973Z" fill="white"/>
<defs>
<linearGradient id="paint0_linear" x1="-37.5004" y1="83.6701" x2="67.8097" y2="21.5464" gradientUnits="userSpaceOnUse">
<stop stop-color="#1D737E"/>
<stop offset="1" stop-color="#4FB9C7"/>
</linearGradient>
</defs>
</svg>
