<svg width="52" height="52" viewBox="0 0 52 52" fill="none" xmlns="http://www.w3.org/2000/svg">
<circle cx="26" cy="26" r="26" fill="url(#paint0_linear)"/>
<g clip-path="url(#clip0)">
<path d="M33.1505 22.3347C33.8825 21.815 34.4982 21.1662 35 20.4193V20.4185C34.3302 20.7118 33.6178 20.9067 32.8738 21.0013C33.6388 20.5445 34.223 19.8267 34.4975 18.962C33.7843 19.3872 32.9967 19.6872 32.1575 19.8552C31.4802 19.1337 30.515 18.6875 29.462 18.6875C27.419 18.6875 25.7743 20.3457 25.7743 22.3783C25.7743 22.6707 25.799 22.952 25.8597 23.2198C22.7922 23.0698 20.0773 21.5998 18.2533 19.3595C17.9352 19.9122 17.7477 20.5445 17.7477 21.2248C17.7477 22.5027 18.4055 23.6353 19.3872 24.2915C18.794 24.2803 18.2127 24.1077 17.72 23.837V23.8775C17.72 25.6708 18.9987 27.1602 20.6765 27.5037C20.3758 27.5863 20.0487 27.6252 19.709 27.6252C19.4727 27.6252 19.2343 27.6118 19.0108 27.5623C19.4885 29.0233 20.846 30.098 22.4585 30.1332C21.203 31.115 19.6085 31.7067 17.8828 31.7067C17.5805 31.7067 17.2903 31.6932 17 31.6565C18.635 32.7102 20.5715 33.3125 22.661 33.3125C29.1732 33.3125 33.4175 27.8795 33.1505 22.3347Z" fill="white"/>
</g>
<defs>
<linearGradient id="paint0_linear" x1="-37.5004" y1="83.6701" x2="67.8097" y2="21.5464" gradientUnits="userSpaceOnUse">
<stop stop-color="#1D737E"/>
<stop offset="1" stop-color="#4FB9C7"/>
</linearGradient>
<clipPath id="clip0">
<rect width="18" height="18" fill="white" transform="translate(17 17)"/>
</clipPath>
</defs>
</svg>
